<svg width="220.1946212768555" height="41.9946856972808" viewBox="0 0 370 70.56500116984051" class="css-1j8o68f"><defs id="SvgjsDefs1347"></defs><g id="SvgjsG1348" featurekey="symbolFeature-0" transform="matrix(3.333333333333334,0,0,3.333333333333334,-10.000000000000002,-2.768332958221436)" fill="#000000"><g xmlns="http://www.w3.org/2000/svg"><path d="M5,20l1.542-1.542c0.377,0.196,0.85,0.15,1.165-0.165L8,18h2l-4-4v2l-0.293,0.293c-0.315,0.315-0.361,0.788-0.165,1.165   L3,20v2h21L5,20z"></path><rect x="10.922" y="3.532" transform="matrix(0.7071 0.7071 -0.7071 0.7071 11.2751 -6.7206)" width="5.657" height="13.435"></rect><path d="M22.586,5.414c0.777-0.778,0.777-2.05,0-2.828l-1.172-1.172c-0.777-0.778-2.051-0.778-2.828,0L17.5,2.5l4,4L22.586,5.414z"></path></g></g><g id="SvgjsG1349" featurekey="nameFeature-0" transform="matrix(1.217704348645484,0,0,1.217704348645484,87.14630911107638,3.682230652106039)" fill="#000000"><path d="M2.3438 12.050999999999998 l0 27.949 l14.258 0 l0 -4.2383 l-10.02 0 l0 -23.711 l-4.2383 0 z M23.65236875 18.945 c-1.9531 1.9531 -2.9297 4.31 -2.9297 7.0703 s0.97656 5.1172 2.9297 7.0703 s4.31 2.9297 7.0703 2.9297 s5.1172 -0.97656 7.0703 -2.9297 s2.9297 -4.31 2.9297 -7.0703 s-0.97656 -5.1172 -2.9297 -7.0703 s-4.31 -2.9297 -7.0703 -2.9297 s-5.1172 0.97656 -7.0703 2.9297 z M20.64456875 36.0937 c-2.7865 -2.7865 -4.1797 -6.1459 -4.1797 -10.078 s1.3932 -7.2916 4.1797 -10.078 s6.1459 -4.1797 10.078 -4.1797 s7.2916 1.3932 10.078 4.1797 s4.1797 6.1459 4.1797 10.078 s-1.3932 7.2916 -4.1797 10.078 s-6.1459 4.1797 -10.078 4.1797 s-7.2916 -1.3932 -10.078 -4.1797 z M51.24996875 36.0937 c-2.7865 -2.7865 -4.1797 -6.1459 -4.1797 -10.078 s1.3932 -7.2916 4.1797 -10.078 s6.1459 -4.1797 10.078 -4.1797 c1.9401 0 3.7891 0.37109 5.5469 1.1133 l-1.6406 3.9258 c-1.25 -0.53385 -2.5521 -0.80078 -3.9063 -0.80078 c-2.7604 0 -5.1172 0.98307 -7.0703 2.9492 c-1.9531 1.9531 -2.9297 4.31 -2.9297 7.0703 s0.97656 5.1172 2.9297 7.0703 s4.31 2.9297 7.0703 2.9297 c0.89844 0 1.7708 -0.11068 2.6172 -0.33203 l0 -7.6172 l-4.5313 0 l0 -4.2578 l8.7891 0 l0 14.785 l-1.2891 0.54688 c-1.7838 0.75521 -3.6459 1.1328 -5.5859 1.1328 c-3.9322 0 -7.2916 -1.3932 -10.078 -4.1797 z M77.187525 18.945 c-1.9531 1.9531 -2.9297 4.31 -2.9297 7.0703 s0.97656 5.1172 2.9297 7.0703 s4.31 2.9297 7.0703 2.9297 s5.1172 -0.97656 7.0703 -2.9297 s2.9297 -4.31 2.9297 -7.0703 s-0.97656 -5.1172 -2.9297 -7.0703 s-4.31 -2.9297 -7.0703 -2.9297 s-5.1172 0.97656 -7.0703 2.9297 z M74.179725 36.0937 c-2.7865 -2.7865 -4.1797 -6.1459 -4.1797 -10.078 s1.3932 -7.2916 4.1797 -10.078 s6.1459 -4.1797 10.078 -4.1797 s7.2916 1.3932 10.078 4.1797 s4.1797 6.1459 4.1797 10.078 s-1.3932 7.2916 -4.1797 10.078 s-6.1459 4.1797 -10.078 4.1797 s-7.2916 -1.3932 -10.078 -4.1797 z M136.211 12.050999999999998 l-9.9609 22.813 l-9.8438 -22.813 l-4.4336 0 l0 27.949 l4.2383 0 l0 -17.637 l7.6367 17.637 l4.7852 0 l7.7734 -17.754 l0 17.754 l4.2383 0 l0 -27.949 l-4.4336 0 z M161.58234375 12.050999999999998 l-17.676 27.949 l5.0195 0 l4.1211 -6.5234 l9.4922 0 l0 6.5234 l4.2578 0 l0 -27.949 l-5.2148 0 z M162.53934375 18.477 l0 10.762 l-6.8164 0 z M185.76175 12.050999999999998 l-9.7656 12.129 l0 -12.129 l-4.2383 0 l0 27.949 l4.2383 0 l0 -9.043 l1.3086 -1.6211 l8.7695 10.664 l5.5078 0 l-11.563 -14.043 l11.172 -13.906 l-5.4297 0 z M194.921925 12.050999999999998 l0 27.949 l14.258 0 l0 -4.2383 l-10.02 0 l0 -7.6563 l7.7344 0 l0 -4.2383 l-7.7344 0 l0 -7.5781 l10.02 0 l0 -4.2383 l-14.258 0 z M216.601575 23.984 l0 -7.6953 l6.0742 0 c1.0547 0 1.9596 0.3776 2.7148 1.1328 c0.74219 0.75521 1.1133 1.6667 1.1133 2.7344 c0 1.0547 -0.37109 1.9531 -1.1133 2.6953 c-0.75521 0.75521 -1.6602 1.1328 -2.7148 1.1328 l-6.0742 0 z M225.839375 27.578 c1.4583 -0.625 2.6367 -1.6015 3.5352 -2.9297 c0.92447 -1.3542 1.3867 -2.8516 1.3867 -4.4922 c0 -2.2396 -0.79428 -4.1471 -2.3828 -5.7227 c-1.5755 -1.5885 -3.4766 -2.3828 -5.7031 -2.3828 l-10.313 0 l0 27.949 l4.2383 0 l0 -11.777 l4.7852 0 l6.1133 11.777 l4.7852 0 z"></path></g></svg>